<?xml version="1.0" encoding="UTF-8" standalone="no"?>
<svg
   xmlns:dc="http://purl.org/dc/elements/1.1/"
   xmlns:cc="http://creativecommons.org/ns#"
   xmlns:rdf="http://www.w3.org/1999/02/22-rdf-syntax-ns#"
   xmlns:svg="http://www.w3.org/2000/svg"
   xmlns="http://www.w3.org/2000/svg"
   id="svg2484"
   version="1.1"
   viewBox="0 0 210 297"
   height="297mm"
   width="210mm">
  <defs
     id="defs2478" />
  <metadata
     id="metadata2481">
    <rdf:RDF>
      <cc:Work
         rdf:about="">
        <dc:format>image/svg+xml</dc:format>
        <dc:type
           rdf:resource="http://purl.org/dc/dcmitype/StillImage" />
        <dc:title></dc:title>
      </cc:Work>
    </rdf:RDF>
  </metadata>
  <g
     id="layer1">
    <path
       id="rect2488"
       d="m 34.866164,-0.646149 c -0.955497,0 -1.724683,1.35585497 -1.724683,3.040124 V 128.45036 L 64.67918,104.74793 V 2.393975 c -2e-6,-1.68426903 -0.769188,-3.040124 -1.724685,-3.040124 z"
       style="opacity:0.42100004;fill:#006c69;fill-opacity:1;fill-rule:nonzero;stroke:none;stroke-width:15.06395626;stroke-linecap:round;stroke-linejoin:round;stroke-miterlimit:4;stroke-dasharray:none;stroke-opacity:0.70196078" />
    <path
       id="rect2488-3"
       d="m 148.78564,-0.646149 c -0.84213,0 -1.52032,1.653381 -1.52032,3.7072671 V 149.39533 l 27.79624,-30.01728 V 3.0611181 c 0,-2.0538861 -0.67819,-3.7072671 -1.52032,-3.7072671 z"
       style="opacity:0.42100004;fill:#006c69;fill-opacity:1;fill-rule:nonzero;stroke:none;stroke-width:15.6169796;stroke-linecap:round;stroke-linejoin:round;stroke-miterlimit:4;stroke-dasharray:none;stroke-opacity:0.70196078" />
    <path
       id="rect2488-6"
       d="m 136.59972,-0.646149 c 0.87452,0 1.57852,1.355855 1.57852,3.040124 V 128.45036 L 109.31323,104.74794 V 2.393975 c 0,-1.684269 0.704,-3.040124 1.57852,-3.040124 z"
       style="opacity:0.42100004;fill:#006c69;fill-opacity:1;fill-rule:nonzero;stroke:none;stroke-width:14.41152191;stroke-linecap:round;stroke-linejoin:round;stroke-miterlimit:4;stroke-dasharray:none;stroke-opacity:0.70196078" />
    <path
       id="rect2488-3-0"
       d="m 73.950235,-0.646149 c -0.84213,0 -1.52032,1.8595432 -1.52032,4.1695309 V 168.10421 L 100.22616,134.34402 V 3.5233819 c 0,-2.3099877 -0.678205,-4.1695309 -1.520335,-4.1695309 z"
       style="opacity:0.42100004;fill:#006c69;fill-opacity:1;fill-rule:nonzero;stroke:none;stroke-width:16.56203651;stroke-linecap:round;stroke-linejoin:round;stroke-miterlimit:4;stroke-dasharray:none;stroke-opacity:0.70196078" />
    <path
       id="rect2488-3-6"
       d="m 184.09869,0.14555216 c -0.71258,0 -1.28643,0.87585494 -1.28643,1.96387154 V 79.627875 L 206.33219,63.726651 V 2.1094237 c 0,-1.0880166 -0.57386,-1.96387154 -1.28643,-1.96387154 z"
       style="opacity:0.42100004;fill:#006c69;fill-opacity:1;fill-rule:nonzero;stroke:none;stroke-width:10.45566463;stroke-linecap:round;stroke-linejoin:round;stroke-miterlimit:4;stroke-dasharray:none;stroke-opacity:0.70196078" />
    <path
       id="rect2488-3-6-2"
       d="m 3.9590289,-0.38912352 c -0.71257,0 -1.2862264,1.12337057 -1.2862264,2.51870922 V 81.151118 L 2.9472044,81.38883 26.192297,85.76479 V 2.1295857 c 0,-1.39533865 -0.573647,-2.51870922 -1.286226,-2.51870922 z"
       style="opacity:0.42100004;fill:#006c69;fill-opacity:1;fill-rule:nonzero;stroke:none;stroke-width:11.84060001;stroke-linecap:round;stroke-linejoin:round;stroke-miterlimit:4;stroke-dasharray:none;stroke-opacity:0.70196078" />
  </g>
</svg>
